<svg xmlns="http://www.w3.org/2000/svg" xmlns:xlink="http://www.w3.org/1999/xlink" viewBox="0 0 80 80">
  <defs>
    <path id="a" d="M77.87 0C79.05 0 80 .95 80 2.13v75.74c0 1.17-.95 2.13-2.13 2.13H2.13C.96 80 0 79.04 0 77.87V2.13C0 .95.96 0 2.13 0h75.74z"/>
    <path id="b" d="M54 40c3.32 0 6 2.69 6 6 0 1.2 0-1.2 0 0 0 3.31-2.68 6-6 6H26c-3.31 0-6-2.69-6-6 0-1.2 0 1.2 0 0 0-3.31 2.69-6 6-6h28z"/>
    <path id="c" d="M0 0h80v17.24H0V0z"/>
  </defs>
  <use xlink:href="#a" fill="currentColor" class="docs-theme-icon-background"/>
  <use xlink:href="#b" fill="#ff4081" class="docs-theme-icon-button"/>
  <use xlink:href="#c" fill="#3f51b5" class="docs-theme-icon-toolbar"/>
</svg>